<svg width="50" height="43" viewBox="0 0 50 43" fill="none" xmlns="http://www.w3.org/2000/svg">
<path d="M1.74266 33.5198C0.0960618 37.3618 -0.0868933 41.2954 0.0274537 42.7819L22.3251 39.6945L26.4416 33.5198C34.6746 39.0084 44.5084 31.8046 46.681 28.3742C60.0596 6.41955 29.529 -3.1856 16.4934 0.930895C3.45788 5.04739 4.83004 13.9665 3.80092 16.7108C2.97762 18.9062 2.08571 20.3699 1.74266 20.8273L3.80092 22.8855C2.97762 24.2577 1.62833 25.7442 1.05659 26.3159C2.20006 27.5737 4.55561 30.3638 4.83004 31.4615C5.10448 32.5593 2.88613 33.2911 1.74266 33.5198Z" fill="#9D8C60"/>
<path d="M12.72 20.4842L4.83008 21.8564C4.94443 22.5425 5.31034 23.9832 5.8592 24.2577C6.54528 24.6007 9.63265 26.659 11.0048 27.002C12.377 27.345 15.4643 25.9729 15.8074 24.2577C16.0818 22.8855 13.8635 21.1703 12.72 20.4842Z" fill="#1A1918"/>
<path d="M18.8948 32.1476C21.0903 31.5988 25.0695 32.8337 26.7847 33.5198L22.3252 39.6945L11.3479 41.0667C11.5766 39.8089 12.1712 37.0188 12.7201 35.9211C13.4061 34.5489 16.1505 32.8337 18.8948 32.1476Z" fill="url(#paint0_linear)"/>
<path d="M44.3711 12.477C41.9012 7.26281 29.8491 7.10272 24.1317 7.67446C22.6452 8.24619 19.535 9.6641 18.9861 10.7618C18.3 12.134 17.6139 20.0239 17.957 20.71C18.3 21.3961 20.3583 25.5126 21.0443 25.8556C21.7304 26.1987 26.1899 26.8848 27.2191 26.8848C36.8242 31.3443 47.4585 18.9948 44.3711 12.477Z" fill="url(#paint1_linear)"/>
<defs>
<linearGradient id="paint0_linear" x1="19.0663" y1="32.0108" x2="22.6683" y2="40.0376" gradientUnits="userSpaceOnUse">
<stop stop-color="#534B35"/>
<stop offset="1" stop-color="#9D9C9C" stop-opacity="0"/>
</linearGradient>
<linearGradient id="paint1_linear" x1="17.957" y1="14.1922" x2="35.4521" y2="26.8848" gradientUnits="userSpaceOnUse">
<stop stop-color="#6A5F41"/>
<stop offset="1" stop-color="#7E7D7D" stop-opacity="0"/>
</linearGradient>
</defs>
</svg>
